<svg id="Layer_1" data-name="Layer 1" xmlns="http://www.w3.org/2000/svg" viewBox="0 0 256 256"><defs><style>.cls-1{fill:#1d1d1b;}</style></defs><title>Artboard 1</title><path class="cls-1" d="M231.83,0H24.17A24.17,24.17,0,0,0,0,24.17V231.83A24.17,24.17,0,0,0,24.17,256H231.83A24.17,24.17,0,0,0,256,231.83V24.17A24.17,24.17,0,0,0,231.83,0ZM203.07,191a12.07,12.07,0,0,1-12,12C114.88,203.07,52.93,141.12,52.93,65A12.07,12.07,0,0,1,65,52.93H92.55A12.07,12.07,0,0,1,104.6,65a85.25,85.25,0,0,0,4.28,26.81,12.13,12.13,0,0,1-3,12.3L93.53,120.53c10.3,19.43,22.36,31.49,41.94,41.94l16.88-12.75c2.56-2.62,7.71-3.93,11.9-2.51A85.14,85.14,0,0,0,191,151.48a12.06,12.06,0,0,1,12,12.05Z"/></svg>