<svg id="Layer_1" xmlns="http://www.w3.org/2000/svg" viewBox="0 0 256 256">
    <title>behance</title>
    <path class="cls-1" d="M105.84,150.16a15.06,15.06,0,0,1-15,15H60.7V135.11H90.8A15.06,15.06,0,0,1,105.84,150.16Z"/>
    <path class="cls-1" d="M105.84,105a15.07,15.07,0,0,1-15,15H60.7V90H90.8A15.06,15.06,0,0,1,105.84,105Z"/>
    <path class="cls-1"
          d="M173.57,120.06a22.62,22.62,0,0,0-21.29,15.05h42.57A22.62,22.62,0,0,0,173.57,120.06Zm0,0a22.62,22.62,0,0,0-21.29,15.05h42.57A22.62,22.62,0,0,0,173.57,120.06ZM231.83,0H24.17A24.17,24.17,0,0,0,0,24.17V231.83A24.17,24.17,0,0,0,24.17,256H231.83A24.17,24.17,0,0,0,256,231.83V24.17A24.17,24.17,0,0,0,231.83,0ZM143.47,74.91h60.19V90H143.47Zm-22.58,75.25A30.13,30.13,0,0,1,90.8,180.25H45.65V74.91H90.8a30,30,0,0,1,19.69,52.67A29.91,29.91,0,0,1,120.89,150.16Zm90.3,0H152.28a22.59,22.59,0,0,0,40.85,3.75l13,7.54a37.63,37.63,0,1,1,5-18.82Zm-37.62-30.1a22.62,22.62,0,0,0-21.29,15.05h42.57A22.62,22.62,0,0,0,173.57,120.06Z"/>
    <path class="cls-2" d="M105.84,105a15.07,15.07,0,0,1-15,15H60.7V90H90.8A15.06,15.06,0,0,1,105.84,105Z"/>
    <path class="cls-2" d="M105.84,150.16a15.06,15.06,0,0,1-15,15H60.7V135.11H90.8A15.06,15.06,0,0,1,105.84,150.16Z"/>
    <path class="cls-2" d="M194.85,135.11H152.28a22.58,22.58,0,0,1,42.57,0Z"/>
</svg>
