<svg id="Layer_1" data-name="Layer 1" xmlns="http://www.w3.org/2000/svg" viewBox="0 0 256 256"><defs><style>.cls-1{fill:#1d1d1b;}</style></defs><title>facebook</title><path class="cls-1" d="M256,24.17V231.83A24.17,24.17,0,0,1,231.83,256H176.75V157h33.37l5-38.75H176.75V93.57c0-11.19,3.11-18.82,19.16-18.82h20.34V40.19a270.34,270.34,0,0,0-29.81-1.53c-29.5,0-49.69,18-49.69,51.07v28.52H103.5V157h33.25v99H24.17A24.17,24.17,0,0,1,0,231.83V24.17A24.17,24.17,0,0,1,24.17,0H231.83A24.17,24.17,0,0,1,256,24.17Z"/></svg>