<svg id="Layer_1" data-name="Layer 1" xmlns="http://www.w3.org/2000/svg" viewBox="0 0 256 256"><defs><style>.cls-1{fill:#1d1d1b;}</style></defs><title>linkedin</title><path class="cls-1" d="M231.83,0H24.17A24.17,24.17,0,0,0,0,24.17V231.83A24.17,24.17,0,0,0,24.17,256H231.83A24.17,24.17,0,0,0,256,231.83V24.17A24.17,24.17,0,0,0,231.83,0ZM108.06,99.05h31.17v13.28c4.14-6.39,11.55-15.48,28.09-15.48,20.51,0,35.89,13.4,35.89,42.21v53.78H172V142.66c0-12.61-4.51-21.21-15.79-21.21-8.61,0-13.74,5.8-16,11.4a21.49,21.49,0,0,0-1,7.61v52.38H108.06S108.46,107.85,108.06,99.05ZM75.43,53.84c10.66,0,17.22,7,17.43,16.2,0,9-6.77,16.2-17.64,16.2H75C64.55,86.24,57.79,79,57.79,70,57.79,60.84,64.76,53.84,75.43,53.84ZM90.8,99.05v93.79H59.63V99.05Z"/></svg>