<svg id="Layer_1" data-name="Layer 1" xmlns="http://www.w3.org/2000/svg" viewBox="0 0 256 256"><defs><style>.cls-1{fill:#1d1d1b;}</style></defs><title>mail</title><path class="cls-1" d="M231.83,0H24.17A24.17,24.17,0,0,0,0,24.17V231.83A24.17,24.17,0,0,0,24.17,256H231.83A24.17,24.17,0,0,0,256,231.83V24.17A24.17,24.17,0,0,0,231.83,0ZM203.07,170.22a9.4,9.4,0,0,1-9.39,9.39H62.32a9.4,9.4,0,0,1-9.39-9.39V101.3l73.24,31a4.71,4.71,0,0,0,3.66,0l73.24-31Zm0-79.12L128,122.9,52.93,91.11V85.78a9.4,9.4,0,0,1,9.39-9.39H193.68a9.4,9.4,0,0,1,9.39,9.39Z"/></svg>