<svg id="Layer_1" data-name="Layer 1" xmlns="http://www.w3.org/2000/svg" viewBox="0 0 256 256"><defs><style>.cls-1{fill:#1d1d1b;}</style></defs><title>github</title><path class="cls-1" d="M256,24.17V231.83c0,.6,0,1.2-.07,1.79A24.16,24.16,0,0,1,231.83,256H164.94a13.39,13.39,0,0,1-.39-3.39c0-10.9,0-21.81.11-32.71.14-10.57-1.1-20.66-9-28.93,6-1.19,11.78-2.05,17.38-3.46,16.58-4.2,30.59-12.33,38.14-28.37,8.24-17.5,10.45-35.94,4.39-54.56-2-6.11-6.37-11.42-9.51-17.18a6,6,0,0,1-.79-4c3.18-11,2.34-21.78-1.66-32.35a4.38,4.38,0,0,0-3.34-2.16c-6.64-.12-12.8,2-18.65,4.89-5,2.46-9.78,5.48-14.74,8.08a6.57,6.57,0,0,1-4.17.76,136.7,136.7,0,0,0-65.39,0,6.54,6.54,0,0,1-4.45-.89c-9.13-5.6-18.4-10.82-29.17-12.6-.32-.05-.64-.14-1-.18-5.38-.73-5.82-.47-7.44,4.79-3.07,10-3.55,20.08-.45,30.22a3.9,3.9,0,0,1-.68,3.13C41.75,101.48,39.58,118.36,42,136.41c1.55,11.51,4.91,22.34,12.25,31.58,9,11.34,21.32,17,35,20.21C94,189.31,98.9,190,104.14,191c-4.72,5-7.06,10.71-8.31,17a3.71,3.71,0,0,1-2.13,2c-15.52,6.53-29.33,2.2-38.29-11.93-4.54-7.15-10.46-12.52-19-14.13a18.24,18.24,0,0,0-6.81.35c-2.19.45-2.45,2.11-1.06,3.73a15.46,15.46,0,0,0,3.66,3.29c7.43,4.44,12.2,11.1,15.37,18.88,5.34,13.13,15.65,18.86,29.06,19.63,6.08.35,12.24-.46,18.68-.76,0,8.59.23,17.5-.1,26.39,0,.18,0,.36,0,.54h-71A24.17,24.17,0,0,1,0,231.83V24.17A24.19,24.19,0,0,1,24.17,0H231.83a24.18,24.18,0,0,1,24.1,22.38C256,23,256,23.57,256,24.17Z"/></svg>